<svg width="22" height="22" viewBox="0 0 22 22" fill="none" xmlns="http://www.w3.org/2000/svg">
<path fill-rule="evenodd" clip-rule="evenodd" d="M6.84422 0.977004C7.91947 0.927504 8.2623 0.916504 11.0013 0.916504C13.7403 0.916504 14.0831 0.928421 15.1575 0.977004C16.2318 1.02559 16.9651 1.197 17.6068 1.44542C18.2787 1.69934 18.8883 2.09625 19.3925 2.60959C19.9058 3.11284 20.3018 3.7215 20.5548 4.39434C20.8041 5.036 20.9746 5.76934 21.0241 6.84184C21.0736 7.91892 21.0846 8.26175 21.0846 10.9998C21.0846 13.7388 21.0727 14.0817 21.0241 15.1569C20.9756 16.2294 20.8041 16.9628 20.5548 17.6044C20.3018 18.2773 19.9051 18.887 19.3925 19.391C18.8883 19.9043 18.2787 20.3003 17.6068 20.5533C16.9651 20.8027 16.2318 20.9732 15.1593 21.0227C14.0831 21.0722 13.7403 21.0832 11.0013 21.0832C8.2623 21.0832 7.91947 21.0713 6.84422 21.0227C5.77172 20.9741 5.03839 20.8027 4.39672 20.5533C3.72381 20.3003 3.11414 19.9037 2.61014 19.391C2.09715 18.8874 1.70017 18.2781 1.44689 17.6053C1.19847 16.9637 1.02797 16.2303 0.978469 15.1578C0.928969 14.0808 0.917969 13.7379 0.917969 10.9998C0.917969 8.26084 0.929885 7.918 0.978469 6.84367C1.02705 5.76934 1.19847 5.036 1.44689 4.39434C1.70055 3.72158 2.09783 3.11221 2.61105 2.60867C3.11434 2.0958 3.7234 1.69883 4.3958 1.44542C5.03747 1.197 5.7708 1.0265 6.8433 0.977004H6.84422ZM15.0759 2.792C14.0126 2.74342 13.6936 2.73334 11.0013 2.73334C8.30905 2.73334 7.99005 2.74342 6.92672 2.792C5.94314 2.83692 5.40964 3.001 5.05397 3.13942C4.58372 3.32275 4.2473 3.54 3.89439 3.89292C3.55984 4.21838 3.30238 4.6146 3.14089 5.0525C3.00247 5.40817 2.83839 5.94167 2.79347 6.92525C2.74489 7.98859 2.7348 8.30759 2.7348 10.9998C2.7348 13.6921 2.74489 14.0111 2.79347 15.0744C2.83839 16.058 3.00247 16.5915 3.14089 16.9472C3.30222 17.3844 3.5598 17.7813 3.89439 18.1068C4.2198 18.4413 4.61672 18.6989 5.05397 18.8603C5.40964 18.9987 5.94314 19.1628 6.92672 19.2077C7.99005 19.2563 8.30814 19.2663 11.0013 19.2663C13.6945 19.2663 14.0126 19.2563 15.0759 19.2077C16.0595 19.1628 16.593 18.9987 16.9486 18.8603C17.4189 18.6769 17.7553 18.4597 18.1082 18.1068C18.4428 17.7813 18.7004 17.3844 18.8617 16.9472C19.0001 16.5915 19.1642 16.058 19.2091 15.0744C19.2577 14.0111 19.2678 13.6921 19.2678 10.9998C19.2678 8.30759 19.2577 7.98859 19.2091 6.92525C19.1642 5.94167 19.0001 5.40817 18.8617 5.0525C18.6784 4.58225 18.4611 4.24584 18.1082 3.89292C17.7827 3.5584 17.3865 3.30095 16.9486 3.13942C16.593 3.001 16.0595 2.83692 15.0759 2.792ZM9.71339 14.1083C10.4327 14.4077 11.2336 14.4481 11.9793 14.2226C12.7251 13.9971 13.3694 13.5197 13.8023 12.8719C14.2351 12.2241 14.4297 11.4461 14.3527 10.6708C14.2757 9.89556 13.9319 9.17106 13.3801 8.62109C13.0283 8.26952 12.6029 8.00033 12.1346 7.83289C11.6663 7.66545 11.1667 7.60392 10.6718 7.65273C10.1768 7.70155 9.69886 7.8595 9.27229 8.11521C8.84572 8.37091 8.48115 8.71802 8.20483 9.13153C7.92851 9.54505 7.74731 10.0147 7.67427 10.5066C7.60124 10.9986 7.63819 11.5006 7.78246 11.9766C7.92674 12.4525 8.17474 12.8906 8.50863 13.2592C8.84251 13.6278 9.25397 13.9178 9.71339 14.1083ZM7.33647 7.335C7.81774 6.85373 8.3891 6.47196 9.01791 6.2115C9.64672 5.95104 10.3207 5.81698 11.0013 5.81698C11.6819 5.81698 12.3559 5.95104 12.9847 6.2115C13.6135 6.47196 14.1849 6.85373 14.6661 7.335C15.1474 7.81628 15.5292 8.38763 15.7896 9.01644C16.0501 9.64526 16.1842 10.3192 16.1842 10.9998C16.1842 11.6805 16.0501 12.3544 15.7896 12.9832C15.5292 13.612 15.1474 14.1834 14.6661 14.6647C13.6942 15.6366 12.3759 16.1827 11.0013 16.1827C9.62672 16.1827 8.30844 15.6366 7.33647 14.6647C6.36449 13.6927 5.81845 12.3744 5.81845 10.9998C5.81845 9.62526 6.36449 8.30698 7.33647 7.335ZM17.3336 6.58884C17.4529 6.47633 17.5484 6.34104 17.6144 6.19098C17.6805 6.04092 17.7157 5.87913 17.7181 5.71519C17.7205 5.55125 17.69 5.38851 17.6283 5.23658C17.5667 5.08465 17.4752 4.94664 17.3593 4.83071C17.2433 4.71477 17.1053 4.62328 16.9534 4.56165C16.8015 4.50001 16.6387 4.46948 16.4748 4.47187C16.3108 4.47426 16.1491 4.50952 15.999 4.57556C15.8489 4.6416 15.7136 4.73707 15.6011 4.85634C15.3823 5.08828 15.2625 5.39637 15.2672 5.71519C15.2718 6.03401 15.4006 6.33848 15.626 6.56394C15.8515 6.78941 16.156 6.91813 16.4748 6.92278C16.7936 6.92743 17.1017 6.80764 17.3336 6.58884Z" fill="white"/>
</svg>
