<svg width="90" height="90" viewBox="0 0 90 90" fill="none" xmlns="http://www.w3.org/2000/svg">
<rect width="90" height="90" rx="45" fill="#270B0B"/>
<path fill-rule="evenodd" clip-rule="evenodd" d="M25.7249 36.5634L25.1094 35.948C24.9805 35.8103 24.8713 35.6632 24.7926 35.4899C24.6003 35.0602 24.6149 34.5547 24.8341 34.1374C24.9077 33.9983 25.0024 33.8774 25.1094 33.763C28.4961 30.3763 31.7852 26.8877 35.2724 23.6044C35.3926 23.5046 35.5193 23.4172 35.6628 23.3524C36.0626 23.1725 36.5302 23.1725 36.9308 23.3517C37.1041 23.4303 37.2513 23.5396 37.3889 23.6685L37.7465 24.0261C37.9264 23.8812 38.1092 23.7406 38.2964 23.6059C39.2221 22.938 40.241 22.3969 41.324 22.032C41.9256 21.8295 42.5447 21.6824 43.1732 21.5913C43.611 21.528 44.0538 21.493 44.4966 21.4843C46.9474 21.4369 49.3501 22.2213 51.463 23.4267C52.3136 23.9118 53.1323 24.4653 53.8773 25.1011L53.9007 25.1215C53.9232 25.1412 53.9451 25.1616 53.9662 25.1827L53.9684 25.1834L53.9691 25.1841C54.0055 25.2205 54.0398 25.2577 54.0733 25.297C54.0886 25.3152 54.1031 25.3342 54.1184 25.3538C54.1213 25.3582 54.125 25.3618 54.1279 25.3662C54.1381 25.3808 54.1483 25.3939 54.1585 25.4085L54.1592 25.4092L54.1585 25.4099L54.1629 25.4157L54.1687 25.423L54.1687 25.4245L54.1694 25.4252L54.1745 25.4318L54.1781 25.4383L54.1796 25.4398L54.1862 25.4492L54.1883 25.4529L54.1876 25.4536L54.1883 25.4543C54.1971 25.4674 54.2051 25.4798 54.2124 25.4929L54.216 25.498V25.4995L54.2175 25.501L54.2204 25.5068L54.2248 25.5141L54.2269 25.5162L54.2277 25.5184L54.2299 25.5221L54.2342 25.5294L54.2364 25.5345L54.2379 25.5359L54.2386 25.5381L54.2422 25.5446L54.2466 25.5519L54.2473 25.5541C54.2881 25.6284 54.3224 25.7063 54.35 25.7865C54.3595 25.8149 54.3682 25.8425 54.3762 25.8709L54.377 25.8746L54.3806 25.8884L54.3813 25.8906L54.3857 25.9052L54.385 25.9059C54.3894 25.9205 54.3923 25.935 54.3959 25.9503C54.4127 26.021 54.4229 26.0938 54.4287 26.1666L54.4294 26.1674L54.4287 26.1681L54.4294 26.1746L54.4301 26.1827L54.4309 26.1848L54.4301 26.1856V26.1899L54.4309 26.1994L54.4309 26.2023L54.4316 26.2031L54.4316 26.2045L54.4316 26.2176L54.4323 26.2198V26.2242L54.4331 26.2351L54.4323 26.2358L54.4331 26.238L54.4331 26.2453L54.4338 26.2504L54.4338 26.2518L54.4331 26.2555L54.4338 26.262L54.4331 26.2657L54.4338 26.2679L54.4338 26.2737L54.4338 26.2781L54.4338 26.281L54.4338 26.2839L54.4338 26.2912L54.4338 26.2955L54.4338 26.2985C54.4338 26.3116 54.4331 26.3254 54.4331 26.3385L54.4331 26.3414L54.4331 26.3443C54.4331 26.3531 54.4323 26.3626 54.4316 26.3706C54.4309 26.3917 54.4294 26.4121 54.4272 26.4317C54.4127 26.5934 54.3719 26.7522 54.3078 26.9008C54.2218 27.1003 54.0944 27.2773 53.9378 27.4223C53.8213 27.5301 53.688 27.6211 53.5409 27.6896C53.4615 27.7267 53.3799 27.7573 53.2962 27.7799H53.2947L53.2932 27.7799L53.2845 27.7828L53.2772 27.7842L53.2728 27.7857L53.2707 27.7864C53.2648 27.7879 53.2605 27.7893 53.2546 27.7908L53.251 27.7915L53.2437 27.793L53.2401 27.7937L53.2364 27.7944L53.2284 27.7966C53.219 27.7988 53.2102 27.8003 53.2007 27.8024L53.1964 27.8039H53.1949L53.1913 27.8046L53.1869 27.8046L53.1811 27.8061L53.1738 27.8075L53.1723 27.8075L53.1716 27.8083C53.1396 27.8141 53.1082 27.8192 53.0769 27.8228C52.889 27.8461 52.6975 27.8338 52.5147 27.7879C52.4804 27.7799 52.4477 27.7704 52.4149 27.7595C52.3756 27.7464 52.337 27.7325 52.2991 27.7165L52.2845 27.7107L52.2729 27.7063C52.2335 27.6888 52.1942 27.6699 52.1563 27.6495C52.0791 27.6116 52.0027 27.5716 51.9233 27.5359C51.4557 27.3305 50.9655 27.1812 50.4652 27.0799C49.5118 26.8869 48.5249 26.8716 47.5657 27.0297C46.801 27.1564 46.0559 27.3917 45.3509 27.7136C44.4864 28.1076 43.6845 28.6284 42.9467 29.2263L43.5185 29.798C43.6262 29.9131 43.7209 30.0326 43.7945 30.1731C44.013 30.5897 44.0283 31.0959 43.8353 31.5249C43.7573 31.6975 43.6481 31.8461 43.5185 31.983L41.1696 34.3318C42.6794 35.8125 44.155 37.3289 45.6415 38.8329L46.463 38.0113C46.4995 37.9793 46.5344 37.9472 46.5694 37.9152C46.6073 37.886 46.6444 37.8562 46.683 37.8292C46.7617 37.7753 46.8447 37.7287 46.9321 37.6909C47.3268 37.5161 47.7857 37.5161 48.1804 37.6909C48.3108 37.7484 48.4332 37.8241 48.5431 37.9152C48.5795 37.9458 48.613 37.9793 48.648 38.0113C55.3252 44.6885 62.1285 51.2412 68.6783 58.0445C68.8669 58.2448 69.0446 58.4545 69.2078 58.6759C69.5879 59.193 69.8902 59.7662 70.1014 60.3722C70.3942 61.2083 70.5122 62.1041 70.4495 62.9883C70.4044 63.6147 70.2689 64.2323 70.0475 64.8193C69.5275 66.1973 68.5341 67.3757 67.2668 68.1244C66.8553 68.367 66.4176 68.5643 65.9624 68.7107C65.3171 68.919 64.6405 69.0246 63.9624 69.0254C63.1795 69.0246 62.3972 68.8833 61.6645 68.6066C61.0877 68.3895 60.5437 68.0887 60.0513 67.7173C59.8314 67.5512 59.6231 67.3706 59.425 67.1798L59.3689 67.1237L39.4522 47.2071L39.3561 47.1022C39.327 47.0643 39.2971 47.0272 39.2702 46.9886C39.19 46.8706 39.1252 46.7417 39.0801 46.6062C38.9431 46.1969 38.9847 45.7402 39.1951 45.3637C39.241 45.2799 39.2949 45.2013 39.3561 45.1285C39.3867 45.092 39.4202 45.0585 39.4522 45.0221L40.2592 44.2151C38.7494 42.7345 37.2746 41.2188 35.7873 39.7141L33.4239 42.0775C33.3103 42.1853 33.1894 42.28 33.0496 42.3528C32.6322 42.5721 32.1275 42.5873 31.6971 42.3943C31.5245 42.3164 31.3766 42.2064 31.239 42.0775L30.6243 41.4628C30.2281 41.8634 29.8297 42.2618 29.4291 42.658C29.633 42.8634 29.8377 43.0695 30.0423 43.2742C30.1581 43.3958 30.2579 43.5276 30.3329 43.6784C30.5369 44.0862 30.5478 44.5735 30.3635 44.9908C30.2958 45.1445 30.2018 45.2807 30.0919 45.4081C28.9127 46.6426 27.6782 47.8232 26.4707 49.0308C26.3498 49.1473 26.2179 49.2456 26.0679 49.3214C25.6593 49.5246 25.1713 49.5362 24.7547 49.3513C24.6011 49.2835 24.4641 49.1903 24.3381 49.0803C22.2311 47.068 20.2166 44.9617 18.1562 42.9013C18.0411 42.7804 17.9413 42.6485 17.8663 42.4978C17.6631 42.0892 17.6522 41.6019 17.8357 41.1853C17.9042 41.0309 17.9967 40.8947 18.1074 40.768C19.3025 39.516 20.5276 38.291 21.7795 37.0958C21.9063 36.9851 22.0432 36.8919 22.1969 36.8242C22.5909 36.6501 23.0505 36.6494 23.4452 36.8241C23.5989 36.8919 23.7351 36.9858 23.8618 37.0951C24.0891 37.3121 24.3141 37.5299 24.5392 37.7491C24.9317 37.3507 25.3265 36.956 25.7249 36.5634ZM43.5549 45.2894L42.7297 46.1146C49.0347 52.4197 55.1446 58.9258 61.6456 65.0276C61.7104 65.0866 61.776 65.1434 61.8444 65.1988C62.229 65.5003 62.6725 65.721 63.1489 65.8375C63.5742 65.9409 64.0192 65.9621 64.4533 65.8994C64.7526 65.8564 65.0454 65.7734 65.3229 65.6532C66.2391 65.2556 66.9514 64.4515 67.2347 63.4938C67.336 63.1522 67.3826 62.7953 67.3746 62.4392C67.3651 62.0553 67.2915 61.673 67.1561 61.3146C66.9842 60.8587 66.714 60.4516 66.3731 60.1064L47.5555 41.2888L46.7282 42.1161C45.6954 43.1984 44.6131 44.2312 43.5549 45.2894ZM37.9759 37.5255L42.4624 42.012L43.4529 41.0215L38.9664 36.535L37.9759 37.5255ZM37.8718 33.2598L40.241 30.8905L36.2964 26.9459C33.6599 29.5825 31.0234 32.219 28.3869 34.8555L29.0161 35.4848C29.9265 36.3646 30.8224 37.2604 31.7029 38.1715L32.3315 38.8001L34.7007 36.4309C35.7327 35.3493 36.7902 34.2918 37.8718 33.2598ZM23.4496 41.0513L22.8203 40.4221L21.4336 41.8088L25.3782 45.7534L26.7649 44.3666L26.1364 43.7381C25.2252 42.8576 24.3294 41.9617 23.4496 41.0513ZM39.949 26.2285L40.7516 27.0312C40.7982 26.9918 40.8462 26.9525 40.8929 26.9132C41.6372 26.2999 42.4347 25.7515 43.2839 25.2927C43.7916 25.0181 44.3181 24.777 44.8586 24.5745C44.5789 24.5687 44.2992 24.5774 44.0195 24.6022C43.6765 24.6335 43.3356 24.6874 42.9999 24.7653C42.4719 24.887 41.9577 25.0691 41.4682 25.3007C40.9285 25.5563 40.4238 25.8717 39.949 26.2285ZM27.2463 40.4461L28.4269 39.2655L27.9222 38.7608L26.7438 39.9392C26.9113 40.1081 27.0788 40.2771 27.2463 40.4461Z" fill="#BD3737"/>
</svg>
