<svg width="90" height="90" viewBox="0 0 90 90" fill="none" xmlns="http://www.w3.org/2000/svg">
<rect width="90" height="90" rx="45" fill="#270B0B"/>
<path d="M69.3448 34.4561C70.272 33.7632 70.163 32.3186 69.3448 31.4997L59.4679 21.6142C58.6497 20.7953 57.3323 20.7953 56.514 21.6142L40.4953 37.6188L24.4981 53.6018C23.6726 58.7274 22.8255 63.8745 22 69L37.3271 66.442C45.6131 58.1488 49.5287 54.2447 53.4807 50.3042C57.4327 46.3636 61.746 42.0078 69.7712 33.9756L69.3448 34.4561Z" stroke="#BD3737" stroke-width="3.5" stroke-miterlimit="6.2" stroke-linecap="round" stroke-linejoin="round"/>
<path d="M64.3962 39.4147L64.5704 39.2402C65.1119 38.6983 65.1119 37.8197 64.5704 37.2778L53.5471 26.245C53.0057 25.7031 52.1279 25.7031 51.5865 26.245L51.4122 26.4194C50.8708 26.9613 50.8708 27.8399 51.4122 28.3818L62.4355 39.4147C62.9769 39.9565 63.8547 39.9565 64.3962 39.4147Z" fill="#BD3737"/>
<path d="M31.1594 68.7751L22.3481 59.9561L22 69L31.1594 68.7751Z" fill="#BD3737"/>
<path d="M38.5251 65.149L38.6994 64.9746C39.2408 64.4327 39.2408 63.5541 38.6994 63.0122L27.676 51.9793C27.1346 51.4375 26.2568 51.4375 25.7154 51.9793L25.5411 52.1538C24.9997 52.6957 24.9997 53.5743 25.5411 54.1162L36.5644 65.149C37.1058 65.6909 37.9836 65.6909 38.5251 65.149Z" fill="#BD3737"/>
</svg>
