<svg width="90" height="90" viewBox="0 0 90 90" fill="none" xmlns="http://www.w3.org/2000/svg">
<rect width="90" height="90" rx="45" fill="#270B0B"/>
<path d="M70.4 66.6L59.64 55.84C62.6 52.24 64.44 47.72 64.44 42.72C64.48 31.32 55.16 22 43.72 22C32.28 22 23 31.32 23 42.72C23 54.12 32.32 63.44 43.72 63.44C48.72 63.44 53.24 61.6 56.84 58.64L67.6 69.4C68 69.8 68.52 70 69 70C69.48 70 70.04 69.8 70.4 69.4C71.2 68.64 71.2 67.36 70.4 66.6ZM27 42.72C27 33.52 34.52 26 43.72 26C52.92 26 60.44 33.52 60.44 42.72C60.44 51.92 52.92 59.44 43.72 59.44C34.52 59.44 27 51.96 27 42.72Z" fill="#BD3737"/>
</svg>
