<svg width="90" height="90" viewBox="0 0 90 90" fill="none" xmlns="http://www.w3.org/2000/svg">
<rect width="90" height="90" rx="45" fill="#280B0B"/>
<path d="M33 44V57H46L43.2888 54.2888H35.7112V46.7112L33 44Z" fill="#BD3737"/>
<path d="M67.5986 64.6686L63.7046 60.7011V64.2732H25.7137V58.6151H28.4273V56.4337H25.7137V47.3671H28.4273V45.1856H25.7137V36.4599H28.4273V34.2785H25.7137V26.6571L47.3413 48.2669V44.4221L25.3202 22.4033C25.1304 22.211 24.8879 22.0799 24.6237 22.0266C24.3595 21.9734 24.0854 22.0004 23.8365 22.1042C23.5876 22.2081 23.3751 22.384 23.2262 22.6097C23.0772 22.8354 22.9985 23.1005 23 23.3713V65.6366C23 65.9982 23.143 66.345 23.3974 66.6007C23.6519 66.8563 23.997 67 24.3568 67H66.6353C66.9048 67.0016 67.1686 66.9224 67.3932 66.7727C67.6178 66.623 67.7929 66.4095 67.8963 66.1594C67.9996 65.9093 68.0265 65.6339 67.9735 65.3684C67.9205 65.1029 67.79 64.8593 67.5986 64.6686Z" fill="#BD3737"/>
<path d="M52.75 61H58.25C58.9793 61 59.6788 60.7141 60.1945 60.2051C60.7103 59.6962 61 59.0059 61 58.2861V32.0971L57.8375 26.3572C57.5929 25.939 57.2397 25.5928 56.8143 25.3543C56.3889 25.1158 55.9067 24.9935 55.4175 25.0003C54.9172 25.0042 54.4275 25.1427 54.001 25.401C53.5746 25.6592 53.2276 26.0273 52.9975 26.4658L50 32.1242V58.2861C50 59.0059 50.2897 59.6962 50.8055 60.2051C51.3212 60.7141 52.0207 61 52.75 61ZM52.75 32.7756L55.4175 27.6599L58.25 32.7891V52.8583H52.75V32.7756ZM52.75 55.0702H58.25V58.3811H52.75V55.0702Z" fill="#BD3737"/>
</svg>
