<svg width="90" height="90" viewBox="0 0 90 90" fill="none" xmlns="http://www.w3.org/2000/svg">
<rect width="90" height="90" rx="45" fill="#280B0B"/>
<g clip-path="url(#clip0_308_815)">
<path d="M69.4823 47.8166L68.1823 53.8833H61.249C60.1656 56.05 58.649 58 56.699 59.5166L58.4323 66.2333L52.799 68.8333L48.6823 63.4166C47.599 63.6333 46.299 63.85 44.999 63.85C43.699 63.85 42.6156 63.6333 41.5323 63.4166L37.199 68.8333L31.5656 66.0166L33.0823 59.3C31.349 57.7833 29.8323 55.8333 28.749 53.6666H21.8156L20.5156 47.6L26.799 45C26.799 42.6166 27.449 40.2333 28.3156 38.0666L23.9823 32.65L27.8823 27.6666L33.949 30.7C35.899 29.1833 38.0656 28.3166 40.449 27.6666L41.9656 21.1666H48.249L49.7656 27.8833C52.149 28.5333 54.3156 29.6166 56.2656 30.9166L62.3323 27.8833L66.2323 32.8666L61.899 38.0666C62.7656 40.2333 63.4156 42.6166 63.4156 45L69.4823 47.8166Z" stroke="#BD3737" stroke-width="3.25" stroke-miterlimit="10" stroke-linecap="round" stroke-linejoin="round"/>
<path d="M45.0013 53.0166C49.1895 53.0166 52.5846 49.6215 52.5846 45.4333C52.5846 41.2451 49.1895 37.85 45.0013 37.85C40.8131 37.85 37.418 41.2451 37.418 45.4333C37.418 49.6215 40.8131 53.0166 45.0013 53.0166Z" stroke="#BD3737" stroke-width="3.25" stroke-miterlimit="10" stroke-linecap="round" stroke-linejoin="round"/>
</g>
<defs>
<clipPath id="clip0_308_815">
<rect width="52" height="52" fill="white" transform="translate(19 19)"/>
</clipPath>
</defs>
</svg>
