<svg width="85" height="90" viewBox="0 0 85 90" fill="none" xmlns="http://www.w3.org/2000/svg">
<g clip-path="url(#clip0_308_770)">
<path d="M11.4337 65.2613C13.6023 66.6417 14.4361 68.7819 15.5705 70.7193C16.3623 72.0746 16.9505 73.6258 18.7184 74.1261C18.7959 74.1481 18.8444 74.3066 18.8767 74.4141C18.8993 74.4838 18.8638 74.5662 18.8347 74.8069C17.5872 74.8069 16.317 74.8636 15.0534 74.7688C14.7237 74.7435 14.3262 74.3129 14.1323 73.9772C12.985 71.9858 11.9088 69.9563 10.7711 67.9586C9.56238 65.8343 8.99682 65.581 6.32403 65.9291C6.32403 68.3447 6.30788 70.7827 6.34989 73.2206C6.35313 73.4453 6.67953 73.6985 6.90254 73.8821C7.15141 74.085 7.45844 74.2209 7.7396 74.3887C7.71051 74.4868 7.68144 74.585 7.65235 74.6834C5.52898 74.6834 3.40562 74.6834 1.0625 74.6834C1.2952 74.3887 1.40185 74.1007 1.58607 74.0406C2.71723 73.6765 2.96286 72.8502 2.95962 71.8116C2.94023 66.8252 2.937 61.8419 2.9467 56.8555C2.9467 55.9688 2.62674 55.339 1.75413 54.9969C1.51497 54.9018 1.32752 54.6802 1.21763 54.2433C1.87371 54.2023 2.53302 54.1612 3.37976 54.1072C3.37976 53.6292 3.37976 53.17 3.37976 52.7111C3.37976 46.0244 3.36361 39.3379 3.40562 32.6512C3.40885 32.1479 3.67063 31.4798 4.05199 31.1664C16.5692 20.9527 29.1154 10.774 41.6585 0.592047C41.8749 0.414749 42.1011 0.250115 42.4339 0C44.3407 1.53869 46.2669 3.07422 48.1737 4.63188C56.4444 11.3914 64.705 18.154 72.9723 24.9166C75.5417 27.0188 78.0883 29.1432 80.6966 31.1981C81.3364 31.7014 81.5854 32.23 81.5854 32.993C81.5626 40.0375 81.5561 47.0313 81.5496 54.0851C82.3318 54.1422 83.0234 54.1926 83.8833 54.256C83.6602 54.5631 83.5695 54.8417 83.4114 54.8861C82.1315 55.2502 81.9506 56.203 81.9506 57.305C81.9537 61.9336 81.9472 66.5623 81.9407 71.1942C81.9377 72.4544 81.9343 73.6986 83.5501 74.1134C83.6632 74.1418 83.7085 74.4268 83.8475 74.7244C81.6273 74.7244 79.5297 74.7244 77.4386 74.7244C77.4161 74.6073 77.3678 74.4775 77.3936 74.4615C78.5506 73.781 78.3438 72.676 78.3404 71.6217C78.3275 67.7941 78.3373 63.9661 78.1207 60.069C77.9915 60.2683 77.8233 60.4552 77.736 60.6704C76.311 64.15 74.8597 67.6199 73.5055 71.1278C73.0854 72.2137 72.5134 72.695 71.214 72.2802C69.3655 67.3475 67.4716 62.3011 65.5778 57.2543C65.4711 57.267 65.3676 57.2763 65.261 57.289C65.2514 61.956 65.4354 66.6193 65.4582 71.286C65.4678 72.5335 65.5001 73.6829 67.0029 74.1324C67.1095 74.1641 67.1354 74.4491 67.242 74.7275C65.3127 74.7275 63.5027 74.7275 61.3891 74.7275C61.7284 74.357 61.8579 74.085 62.0453 74.0373C63.1116 73.765 63.4025 73.0054 63.4059 72.0586C63.4189 66.9961 63.4254 61.9306 63.4284 56.8682C63.4284 55.9564 63.0956 55.2566 62.142 54.9368C61.9257 54.8641 61.7543 54.6551 61.2664 54.2814C63.4189 54.2814 65.1962 54.2814 67.1517 54.2814C68.8967 58.9988 70.6839 63.8269 72.5781 68.9465C73.4216 66.9043 74.1487 65.1629 74.8597 63.4154C75.6483 61.4714 76.3301 59.48 77.2288 57.59C78.1241 55.7061 78.3857 55.6841 78.3629 53.6323C78.2951 47.8956 78.3339 40.2591 78.3534 34.5221C78.3567 33.851 78.1885 33.4048 77.6165 32.9329C66.1886 23.5299 54.7799 14.0983 43.397 4.64139C42.6925 4.05568 42.2983 4.06833 41.6003 4.64773C30.072 14.1806 18.5148 23.6787 6.98012 33.2022C6.66015 33.4679 6.34989 33.9618 6.34665 34.3513C6.31112 40.8004 6.32727 47.2495 6.33374 53.699C6.35313 53.8605 6.26264 54.1642 6.45332 54.1642C7.22572 54.1642 8.024 54.1325 8.81581 54.1739C9.74015 54.218 10.6742 54.2624 11.5823 54.4175C16.8891 55.0223 17.3125 61.7404 13.4245 64.1627C12.846 64.5204 12.2384 64.8178 11.4337 65.2613ZM6.34989 64.5331C8.60899 64.441 10.9069 64.8622 12.2772 62.5891C13.2888 60.9111 13.1692 58.2105 12.0768 56.8458C11.0394 55.5509 8.43446 54.9779 6.35313 55.608C6.34989 58.5175 6.34989 61.4367 6.34989 64.5331Z" fill="white"/>
<path d="M37.1245 64.1941C37.1405 66.5085 36.8271 68.7532 35.7154 70.8461C34.106 73.8728 31.013 75.4083 27.3318 74.9808C23.8996 74.5819 21.4659 72.5271 20.6935 69.1617C19.9114 65.7583 19.8176 62.3294 21.1718 59.0241C23.2726 53.8952 29.6556 52.1728 33.9895 55.5796C36.3488 57.4349 36.8659 60.1355 37.1211 62.8961C37.1569 63.3203 37.1245 63.7572 37.1245 64.1941ZM33.6995 67.9384C34.0154 66.1785 34.0589 64.3767 33.8798 62.5984C33.8046 61.85 33.7279 61.1668 33.6243 60.4869C33.5112 59.7523 33.2431 59.0335 32.9651 58.337C32.1894 56.409 30.8256 55.1995 28.6149 55.1584C26.5982 55.1234 24.9919 56.2127 24.2066 58.4164C22.7652 62.472 22.875 66.5813 24.3326 70.6055C25.0469 72.5779 26.5497 73.7967 28.812 73.803C30.7479 73.8094 32.4704 72.5842 33.1235 70.4249C33.3747 69.5971 33.5541 68.7481 33.6995 67.9384Z" fill="white"/>
<path d="M58.0381 64.2291C57.9444 67.1733 57.5308 70.0228 55.5235 72.3529C53.2386 75.0031 50.2041 75.4874 46.9397 74.7528C44.1345 74.1197 42.47 72.2264 41.6942 69.5575C40.6375 65.9164 40.6473 62.2884 42.1371 58.7675C45.0976 51.4256 56.6839 52.4832 57.6824 60.8193C57.8442 61.9493 57.9216 63.0924 58.0381 64.2291ZM54.6646 67.234C54.9417 65.6239 55.0471 63.9803 54.8295 62.3614C54.3835 59.0431 53.2978 55.2798 49.6062 55.1521C47.6184 55.0823 46.1091 55.9784 45.3692 57.7322C44.7938 59.0938 44.3996 60.585 44.2507 62.0541C43.9471 65.014 44.0085 67.9839 45.2302 70.7953C46.0672 72.7203 47.541 73.8253 49.7193 73.7967C51.7069 73.7713 53.3939 72.4861 53.9949 70.3552C54.2855 69.332 54.484 68.2853 54.6646 67.234Z" fill="white"/>
<path d="M0.710938 85.0789V79.0691H2.44272C2.97645 79.0691 3.44837 79.1847 3.85848 79.4156C4.26863 79.6469 4.58465 79.9757 4.80655 80.4023C5.03128 80.8289 5.14504 81.3186 5.14784 81.8717V82.2554C5.14784 82.8224 5.03547 83.3191 4.81077 83.7457C4.58884 84.1723 4.27001 84.4995 3.85429 84.7281C3.44134 84.9563 2.95959 85.0735 2.40901 85.0789H0.710938ZM1.51995 79.7212V84.431H2.37109C2.9947 84.431 3.47928 84.2411 3.82479 83.8613C4.17312 83.4815 4.34728 82.9408 4.34728 82.2391V81.8883C4.34728 81.2057 4.18295 80.6761 3.85429 80.299C3.52843 79.9192 3.06493 79.7266 2.46379 79.7212H1.51995ZM10.8773 82.301H8.21854V84.431H11.3071V85.0789H7.40953V79.0691H11.265V79.7212H8.21854V81.6528H10.8773V82.301ZM15.1573 82.4C14.4635 82.2047 13.9579 81.9653 13.6404 81.6818C13.3258 81.3956 13.1685 81.0433 13.1685 80.6251C13.1685 80.1517 13.3609 79.761 13.7458 79.4528C14.1334 79.1418 14.6363 78.9863 15.2542 78.9863C15.6756 78.9863 16.0506 79.0663 16.3793 79.2257C16.7107 79.3855 16.9664 79.6056 17.1462 79.8863C17.3287 80.1668 17.42 80.4738 17.42 80.8069H16.6068C16.6068 80.4434 16.4888 80.1587 16.2529 79.9524C16.0169 79.7432 15.684 79.6385 15.2542 79.6385C14.8553 79.6385 14.5435 79.7254 14.3188 79.8987C14.0969 80.0693 13.986 80.3072 13.986 80.6127C13.986 80.8576 14.0913 81.0653 14.302 81.2359C14.5155 81.4037 14.8764 81.558 15.3849 81.6984C15.8961 81.8388 16.295 81.9943 16.5815 82.1649C16.8708 82.3327 17.0843 82.5293 17.222 82.7551C17.3624 82.9806 17.4327 83.2463 17.4327 83.5515C17.4327 84.0388 17.2389 84.4295 16.8512 84.7239C16.4635 85.0155 15.9453 85.1613 15.2964 85.1613C14.875 85.1613 14.4818 85.0831 14.1166 84.9261C13.7514 84.7664 13.4691 84.5491 13.2696 84.274C13.073 83.999 12.9747 83.6865 12.9747 83.3369H13.7879C13.7879 83.7004 13.9241 83.9878 14.1966 84.1997C14.4719 84.409 14.8385 84.5134 15.2964 84.5134C15.7233 84.5134 16.0506 84.428 16.2782 84.2574C16.5057 84.0868 16.6195 83.8544 16.6195 83.56C16.6195 83.2653 16.5141 83.0386 16.3034 82.8789C16.0927 82.7164 15.7107 82.5567 15.1573 82.4ZM20.377 85.0789H19.5679V79.0691H20.377V85.0789ZM27.4253 84.2906C27.2174 84.5823 26.9267 84.8009 26.5531 84.9467C26.1823 85.0898 25.7497 85.1613 25.2553 85.1613C24.7553 85.1613 24.3115 85.0472 23.9238 84.819C23.5361 84.5877 23.2356 84.2601 23.0221 83.8365C22.8114 83.4127 22.7033 82.9214 22.6976 82.3629V81.8388C22.6976 80.9334 22.9125 80.2317 23.3423 79.7336C23.7749 79.2354 24.3817 78.9863 25.1626 78.9863C25.8031 78.9863 26.3185 79.1475 26.709 79.4694C27.0994 79.7885 27.3382 80.2426 27.4253 80.8316H26.6163C26.4646 80.0364 25.9814 79.6385 25.1668 79.6385C24.6246 79.6385 24.2131 79.8256 23.9322 80.2C23.6541 80.5714 23.5137 81.1109 23.5109 81.818V82.3092C23.5109 82.9833 23.6682 83.5201 23.9828 83.919C24.2974 84.3154 24.723 84.5134 25.2595 84.5134C25.5629 84.5134 25.8283 84.4805 26.0559 84.4144C26.2834 84.3483 26.4716 84.2369 26.6205 84.0799V82.7303H25.2005V82.0864H27.4253V84.2906ZM34.5283 85.0789H33.7153L30.6266 80.4476V85.0789H29.8134V79.0691H30.6266L33.7236 83.7209V79.0691H34.5283V85.0789ZM41.0448 85.0789H40.2358V79.0691H41.0448V85.0789ZM48.2784 85.0789H47.4654L44.3767 80.4476V85.0789H43.5637V79.0691H44.3767L47.4737 83.7209V79.0691H48.2784V85.0789ZM54.8633 79.7212H52.8915V85.0789H52.0868V79.7212H50.1189V79.0691H54.8633V79.7212ZM60.2767 82.301H57.6179V84.431H60.7067V85.0789H56.8089V79.0691H60.6644V79.7212H57.6179V81.6528H60.2767V82.301ZM64.9992 82.6476H63.5581V85.0789H62.7451V79.0691H64.7761C65.467 79.0691 65.9977 79.223 66.3688 79.5313C66.7423 79.8395 66.9291 80.2882 66.9291 80.8769C66.9291 81.2513 66.8252 81.5773 66.6172 81.8551C66.4123 82.1332 66.1256 82.3409 65.7577 82.4785L67.1988 85.0294V85.0789H66.3309L64.9992 82.6476ZM63.5581 81.9997H64.8013C65.2029 81.9997 65.5219 81.898 65.7577 81.6942C65.9965 81.4907 66.1158 81.2181 66.1158 80.8769C66.1158 80.5056 66.0021 80.2205 65.7746 80.0225C65.5499 79.8244 65.2239 79.7239 64.797 79.7212H63.5581V81.9997ZM69.9704 85.0789H69.1614V79.0691H69.9704V85.0789ZM77.2083 82.2678C77.2083 82.8568 77.1072 83.3713 76.9047 83.8118C76.7026 84.2493 76.4159 84.5835 76.0452 84.8147C75.6744 85.046 75.242 85.1613 74.7474 85.1613C74.2644 85.1613 73.836 85.046 73.4625 84.8147C73.0887 84.5808 72.798 84.2493 72.59 83.8199C72.3851 83.3879 72.2797 82.8885 72.2741 82.3215V81.8883C72.2741 81.3104 72.3767 80.7999 72.5817 80.3567C72.7866 79.9138 73.076 79.5754 73.4496 79.3414C73.8262 79.1047 74.2558 78.9863 74.7391 78.9863C75.2306 78.9863 75.6633 79.1035 76.0369 79.3372C76.4132 79.5684 76.7026 79.9057 76.9047 80.3486C77.1072 80.7887 77.2083 81.302 77.2083 81.8883V82.2678ZM76.4033 81.8799C76.4033 81.1673 76.2575 80.6209 75.9654 80.2414C75.6732 79.8589 75.2645 79.6674 74.7391 79.6674C74.2278 79.6674 73.8246 79.8589 73.5297 80.2414C73.2375 80.6209 73.0874 81.1492 73.0788 81.8264V82.2678C73.0788 82.9586 73.2264 83.502 73.5214 83.8984C73.8191 84.2918 74.2278 84.4887 74.7474 84.4887C75.2701 84.4887 75.6744 84.303 75.961 83.9313C76.2477 83.5573 76.395 83.022 76.4033 82.3258V81.8799ZM81.7073 82.6476H80.2662V85.0789H79.4532V79.0691H81.4839C82.1752 79.0691 82.7059 79.223 83.0766 79.5313C83.4505 79.8395 83.6372 80.2882 83.6372 80.8769C83.6372 81.2513 83.5334 81.5773 83.3253 81.8551C83.1204 82.1332 82.8338 82.3409 82.4658 82.4785L83.9069 85.0294V85.0789H83.0387L81.7073 82.6476ZM80.2662 81.9997H81.5092C81.911 81.9997 82.2297 81.898 82.4658 81.6942C82.7047 81.4907 82.8239 81.2181 82.8239 80.8769C82.8239 80.5056 82.7102 80.2205 82.4827 80.0225C82.2581 79.8244 81.932 79.7239 81.5051 79.7212H80.2662V81.9997Z" fill="white"/>
<path d="M1.23438 88.0679H83.7072" stroke="#DDD072" stroke-linecap="round"/>
</g>
<defs>
<clipPath id="clip0_308_770">
<rect width="85" height="90" fill="white"/>
</clipPath>
</defs>
</svg>
